# Alias OBJ Model File
# Exported from SketchUp, (c) 2000-2012 Trimble Navigation Limited
# File units = inches

mtllib haha.mtl

g Mesh1 Model

usemtl FrontColor
v -58.0393 283.456 -0
vt -58.0393 283.456
vn 0 0 1
v -51.857 236.497 -0
vt -51.857 236.497
v -33.7313 192.737 -0
vt -33.7313 192.737
v -4.89747 155.16 -0
vt -4.89747 155.16
v 32.6795 126.327 -0
vt 32.6795 126.327
v 76.4387 108.201 -0
vt 76.4387 108.201
v 123.398 102.019 -0
vt 123.398 102.019
v 170.358 108.201 -0
vt 170.358 108.201
v 214.117 126.327 -0
vt 214.117 126.327
v 251.694 155.16 -0
vt 251.694 155.16
v 280.528 192.737 -0
vt 280.528 192.737
v 298.653 236.497 -0
vt 298.653 236.497
v 304.836 283.456 -0
vt 304.836 283.456
f 1/1/1 2/2/1 3/3/1 4/4/1 5/5/1 6/6/1 7/7/1 8/8/1 9/9/1 10/10/1 11/11/1 12/12/1 13/13/1 

vt 0 241.242
vn -0.965926 -0.258819 -0
vt 0 288.607
vn -0.991445 -0.130526 -0
v -58.0393 283.456 -112
vt -112 288.607
v -51.857 236.497 -112
vt -112 241.242
f 2/14/2 1/15/3 14/16/3 15/17/2 

vt -58.0393 0
vn 0 1 -0
vt 304.836 0
v 304.836 283.456 -112
vt 304.836 112
vt -58.0393 112
f 1/18/4 13/19/4 16/20/4 14/21/4 

vt 0 320.82
vn 0.991445 -0.130526 -0
vt 0 273.456
vn 0.965926 -0.258819 -0
v 298.653 236.497 -112
vt 112 273.456
vt 112 320.82
f 13/22/5 12/23/6 17/24/6 16/25/5 

vt 0 332.784
vt 0 285.419
vn 0.866025 -0.5 -0
v 280.528 192.737 -112
vt 112 285.419
vt 112 332.784
f 12/26/6 11/27/7 18/28/7 17/29/6 

vt 0 323.683
vt 0 276.319
vn 0.707107 -0.707107 -0
v 251.694 155.16 -112
vt 112 276.319
vt 112 323.683
f 11/30/7 10/31/8 19/32/8 18/33/7 

vt 0 294.138
vt 0 246.773
vn 0.5 -0.866025 -0
v 214.117 126.327 -112
vt 112 246.773
vt 112 294.138
f 10/34/8 9/35/9 20/36/9 19/37/8 

vt 0 246.161
vt 0 198.797
vn 0.258819 -0.965926 -0
v 170.358 108.201 -112
vt 112 198.797
vt 112 246.161
f 9/38/9 8/39/10 21/40/10 20/41/9 

vt 0 183.023
vt 0 135.659
vn -4.19926e-17 -1 -0
v 123.398 102.019 -112
vt 112 135.659
vt 112 183.023
f 8/42/10 7/43/11 22/44/11 21/45/10 

vt 0 -109.026
vt 0 -61.6617
vn -0.258819 -0.965926 -0
v 76.4387 108.201 -112
vt -112 -61.6617
vt -112 -109.026
f 7/46/11 6/47/12 23/48/12 22/49/11 

vt 0 -29.2135
vt 0 18.1512
vn -0.5 -0.866025 -0
v 32.6795 126.327 -112
vt -112 18.1512
vt -112 -29.2135
f 6/50/12 5/51/13 24/52/13 23/53/12 

vt 0 50.9764
vt 0 98.3411
vn -0.707107 -0.707107 -0
v -4.89747 155.16 -112
vt -112 98.3411
vt -112 50.9764
f 5/54/13 4/55/14 25/56/14 24/57/13 

vt 0 126.078
vt 0 173.443
vn -0.866025 -0.5 -0
v -33.7313 192.737 -112
vt -112 173.443
vt -112 126.078
f 4/58/14 3/59/15 26/60/15 25/61/14 

vt 0 190.975
vt 0 238.339
vt -112 238.339
vt -112 190.975
f 3/62/15 2/63/2 15/64/2 26/65/15 

vt 51.857 236.497
vn 0 0 -1
vt 58.0393 283.456
vt -304.836 283.456
vt -298.653 236.497
vt -280.528 192.737
vt -251.694 155.16
vt -214.117 126.327
vt -170.358 108.201
vt -123.398 102.019
vt -76.4387 108.201
vt -32.6795 126.327
vt 4.89747 155.16
vt 33.7313 192.737
f 15/66/16 14/67/16 16/68/16 17/69/16 18/70/16 19/71/16 20/72/16 21/73/16 22/74/16 23/75/16 24/76/16 25/77/16 26/78/16 

