# Alias OBJ Model File
# Exported from SketchUp, (c) 2000-2012 Trimble Navigation Limited
# File units = inches

mtllib smile2.mtl

g Mesh1 Model

usemtl _1
v 55.4419 81.5773 -0
vt 55.4419 81.5773
vn 0 0 1
v 51.7653 80.5013 -0
vt 51.7653 80.5013
v 50.0446 75.2243 -0
vt 50.0446 75.2243
v 47.1744 70.4736 -0
vt 47.1744 70.4736
v 43.3035 66.4958 -0
vt 43.3035 66.4958
v 38.6327 63.4972 -0
vt 38.6327 63.4972
v 33.4046 61.6335 -0
vt 33.4046 61.6335
v 27.8903 61.0013 -0
vt 27.8903 61.0013
v 22.376 61.6335 -0
vt 22.376 61.6335
v 17.1478 63.4972 -0
vt 17.1478 63.4972
v 12.4771 66.4958 -0
vt 12.4771 66.4958
v 8.60616 70.4736 -0
vt 8.60616 70.4736
v 5.73591 75.2243 -0
vt 5.73591 75.2243
v 4.01527 80.5013 -0
vt 4.01527 80.5013
v 0.129389 81.5773 -0
vt 0.129389 81.5773
v 1.60786 74.9268 -0
vt 1.60786 74.9268
v 4.6603 68.8361 -0
vt 4.6603 68.8361
v 9.1032 63.6714 -0
vt 9.1032 63.6714
v 14.6694 59.7431 -0
vt 14.6694 59.7431
v 21.0243 57.2875 -0
vt 21.0243 57.2875
v 27.7856 56.4523 -0
vt 27.7856 56.4523
v 34.547 57.2875 -0
vt 34.547 57.2875
v 40.9019 59.7431 -0
vt 40.9019 59.7431
v 46.4681 63.6714 -0
vt 46.4681 63.6714
v 50.911 68.8361 -0
vt 50.911 68.8361
v 53.9634 74.9268 -0
vt 53.9634 74.9268
f 1/1/1 2/2/1 3/3/1 4/4/1 5/5/1 6/6/1 7/7/1 8/8/1 9/9/1 10/10/1 11/11/1 12/12/1 13/13/1 14/14/1 15/15/1 16/16/1 17/17/1 18/18/1 19/19/1 20/20/1 21/21/1 22/22/1 23/23/1 24/24/1 25/25/1 26/26/1 

vt 0 72.2922
vn -0.280875 0.959744 -0
vt 0 76.123
v 55.4419 81.5773 -26.75
vt -26.75 76.123
v 51.7653 80.5013 -26.75
vt -26.75 72.2922
f 2/27/2 1/28/2 27/29/2 28/30/2 

vt 0 91.6648
vn 0.976169 -0.217014 -0
vt 0 84.852
vn 0.942197 -0.335058 -0
v 53.9634 74.9268 -26.75
vt 26.75 84.852
vt 26.75 91.6648
f 1/31/3 26/32/4 29/33/4 27/34/3 

vt 0 91.1635
vt 0 84.3507
vn 0.832333 -0.554276 -0
v 50.911 68.8361 -26.75
vt 26.75 84.3507
vt 26.75 91.1635
f 26/35/4 25/36/5 30/37/5 29/38/4 

vt 0 85.3856
vt 0 78.5729
vn 0.672423 -0.740167 -0
v 46.4681 63.6714 -26.75
vt 26.75 78.5729
vt 26.75 85.3856
f 25/39/5 24/40/6 31/41/6 30/42/5 

vt 0 74.6787
vt 0 67.8659
vn 0.472083 -0.881554 -0
v 40.9019 59.7431 -26.75
vt 26.75 67.8659
vt 26.75 74.6787
f 24/43/6 23/44/7 32/45/7 31/46/6 

vt 0 59.6863
vt 0 52.8735
vn 0.243357 -0.969937 -0
v 34.547 57.2875 -26.75
vt 26.75 52.8735
vt 26.75 59.6863
f 23/47/7 22/48/8 33/49/8 32/50/7 

vt 0 41.3101
vt 0 34.4973
vn 0 -1 -0
v 27.7856 56.4523 -26.75
vt 26.75 34.4973
vt 26.75 41.3101
f 22/51/8 21/52/9 34/53/9 33/54/8 

vt 0 -20.6548
vt 0 -13.842
vn -0.243357 -0.969937 -0
v 21.0243 57.2875 -26.75
vt -26.75 -13.842
vt -26.75 -20.6548
f 21/55/9 20/56/10 35/57/10 34/58/9 

vt 0 1.03761
vt 0 7.85039
vn -0.472083 -0.881554 -0
v 14.6694 59.7431 -26.75
vt -26.75 7.85039
vt -26.75 1.03761
f 20/59/10 19/60/11 36/61/11 35/62/10 

vt 0 22.4628
vt 0 29.2756
vn -0.672423 -0.740167 -0
v 9.1032 63.6714 -26.75
vt -26.75 29.2756
vt -26.75 22.4628
f 19/63/11 18/64/12 37/65/12 36/66/11 

vt 0 42.3325
vt 0 49.1453
vn -0.832333 -0.554276 -0
v 4.6603 68.8361 -26.75
vt -26.75 49.1453
vt -26.75 42.3325
f 18/67/12 17/68/13 38/69/13 37/70/12 

vt 0 59.4521
vt 0 66.2649
vn -0.942197 -0.335058 -0
v 1.60786 74.9268 -26.75
vt -26.75 66.2649
vt -26.75 59.4521
f 17/71/13 16/72/14 39/73/14 38/74/13 

vt 0 72.7923
vt 0 79.6051
vn -0.976169 -0.217014 -0
v 0.129389 81.5773 -26.75
vt -26.75 79.6051
vt -26.75 72.7923
f 16/75/14 15/76/15 40/77/15 39/78/14 

vt 0 21.6445
vn 0.266854 0.963737 -0
vt 0 17.6124
v 4.01527 80.5013 -26.75
vt 26.75 17.6124
vt 26.75 21.6445
f 15/79/16 14/80/16 41/81/16 40/82/16 

vt 0 75.2907
vn 0.950736 0.310002 -0
vt 0 69.7403
vn 0.909241 0.416271 -0
v 5.73591 75.2243 -26.75
vt 26.75 69.7403
vt 26.75 75.2907
f 14/83/17 13/84/18 42/85/18 41/86/17 

vt 0 61.4191
vt 0 55.8687
vn 0.791442 0.611244 -0
v 8.60616 70.4736 -26.75
vt 26.75 55.8687
vt 26.75 61.4191
f 13/87/18 12/88/19 43/89/19 42/90/18 

vt 0 44.5045
vt 0 38.954
vn 0.632575 0.774499 -0
v 12.4771 66.4958 -26.75
vt 26.75 38.954
vt 26.75 44.5045
f 12/91/19 11/92/20 44/93/20 43/94/19 

vt 0 25.4244
vt 0 19.874
vn 0.440883 0.897565 -0
v 17.1478 63.4972 -26.75
vt 26.75 19.874
vt 26.75 25.4244
f 11/95/20 10/96/21 45/97/21 44/98/20 

vt 0 5.16911
vt 0 -0.381313
vn 0.226313 0.974055 -0
v 22.376 61.6335 -26.75
vt 26.75 -0.381313
vt 26.75 5.16911
f 10/99/21 9/100/22 46/101/22 45/102/21 

vt 0 -15.2104
vt 0 -20.7609
vn 3.49217e-17 1 -0
v 27.8903 61.0013 -26.75
vt 26.75 -20.7609
vt 26.75 -15.2104
f 9/103/22 8/104/23 47/105/23 46/106/22 

vt 0 34.6567
vt 0 40.2071
vn -0.226313 0.974055 -0
v 33.4046 61.6335 -26.75
vt -26.75 40.2071
vt -26.75 34.6567
f 8/107/23 7/108/24 48/109/24 47/110/23 

vt 0 52.1606
vt 0 57.711
vn -0.440883 0.897565 -0
v 38.6327 63.4972 -26.75
vt -26.75 57.711
vt -26.75 52.1606
f 7/111/24 6/112/25 49/113/25 48/114/24 

vt 0 66.8138
vt 0 72.3642
vn -0.632575 0.774499 -0
v 43.3035 66.4958 -26.75
vt -26.75 72.3642
vt -26.75 66.8138
f 6/115/25 5/116/26 50/117/26 49/118/25 

vt 0 77.856
vt 0 83.4064
vn -0.791442 0.611244 -0
v 47.1744 70.4736 -26.75
vt -26.75 83.4064
vt -26.75 77.856
f 5/119/26 4/120/27 51/121/27 50/122/26 

vt 0 84.7141
vt 0 90.2645
vn -0.909241 0.416271 -0
v 50.0446 75.2243 -26.75
vt -26.75 90.2645
vt -26.75 84.7141
f 4/123/27 3/124/28 52/125/28 51/126/27 

vt 0 87.0324
vt 0 92.5828
vn -0.950736 0.310002 -0
vt -26.75 92.5828
vt -26.75 87.0324
f 3/127/28 2/128/29 28/129/29 52/130/28 

vt -51.7653 80.5013
vn 0 0 -1
vt -55.4419 81.5773
vt -53.9634 74.9268
vt -50.911 68.8361
vt -46.4681 63.6714
vt -40.9019 59.7431
vt -34.547 57.2875
vt -27.7856 56.4523
vt -21.0243 57.2875
vt -14.6694 59.7431
vt -9.1032 63.6714
vt -4.6603 68.8361
vt -1.60786 74.9268
vt -0.129389 81.5773
vt -4.01527 80.5013
vt -5.73591 75.2243
vt -8.60616 70.4736
vt -12.4771 66.4958
vt -17.1478 63.4972
vt -22.376 61.6335
vt -27.8903 61.0013
vt -33.4046 61.6335
vt -38.6327 63.4972
vt -43.3035 66.4958
vt -47.1744 70.4736
vt -50.0446 75.2243
f 28/131/30 27/132/30 29/133/30 30/134/30 31/135/30 32/136/30 33/137/30 34/138/30 35/139/30 36/140/30 37/141/30 38/142/30 39/143/30 40/144/30 41/145/30 42/146/30 43/147/30 44/148/30 45/149/30 46/150/30 47/151/30 48/152/30 49/153/30 50/154/30 51/155/30 52/156/30 

